<mxfile host="app.diagrams.net" agent="Mozilla/5.0 (X11; Linux x86_64) AppleWebKit/537.36 (KHTML, like Gecko) Chrome/139.0.0.0 Safari/537.36" version="28.2.3">
  <diagram id="JzQxzd5eA3obd-ft39aP" name="Page-2">
    <mxGraphModel dx="1425" dy="796" grid="1" gridSize="10" guides="1" tooltips="1" connect="1" arrows="1" fold="1" page="1" pageScale="1" pageWidth="827" pageHeight="1169" math="0" shadow="0">
      <root>
        <mxCell id="0" />
        <mxCell id="1" parent="0" />
        <mxCell id="IvjxRuRWldD-dNK5fLIv-1" value="STUDENT&#xa;(Student_ID PK, Name, DOB, Dept_ID FK)" style="shape=rectangle;rounded=0;whiteSpace=wrap;html=1;" vertex="1" parent="1">
          <mxGeometry x="720" y="640" width="200" height="60" as="geometry" />
        </mxCell>
        <mxCell id="IvjxRuRWldD-dNK5fLIv-2" value="DEPARTMENT&#xa;(Dept_ID PK, Dept_Name)" style="shape=rectangle;rounded=0;whiteSpace=wrap;html=1;" vertex="1" parent="1">
          <mxGeometry x="1110" y="720" width="180" height="60" as="geometry" />
        </mxCell>
        <mxCell id="IvjxRuRWldD-dNK5fLIv-3" value="COURSE&#xa;(Course_ID PK, Course_Name, Dept_ID FK)" style="shape=rectangle;rounded=0;whiteSpace=wrap;html=1;" vertex="1" parent="1">
          <mxGeometry x="720" y="770" width="200" height="60" as="geometry" />
        </mxCell>
        <mxCell id="IvjxRuRWldD-dNK5fLIv-4" value="FACULTY&#xa;(Faculty_ID PK, Name, Dept_ID FK)" style="shape=rectangle;rounded=0;whiteSpace=wrap;html=1;" vertex="1" parent="1">
          <mxGeometry x="720" y="910" width="200" height="60" as="geometry" />
        </mxCell>
        <mxCell id="IvjxRuRWldD-dNK5fLIv-5" value="BOOK&#xa;(Book_ID PK, Title, Author)" style="shape=rectangle;rounded=0;whiteSpace=wrap;html=1;" vertex="1" parent="1">
          <mxGeometry x="870" y="490" width="200" height="60" as="geometry" />
        </mxCell>
        <mxCell id="IvjxRuRWldD-dNK5fLIv-6" value="LIBRARY&lt;br&gt;(Student_ID FK, Book_ID FK, Issue_Date, Return_Date)" style="rounded=0;whiteSpace=wrap;html=1;" vertex="1" parent="1">
          <mxGeometry x="360" y="570" width="220" height="60" as="geometry" />
        </mxCell>
        <mxCell id="IvjxRuRWldD-dNK5fLIv-7" value="ENROLLMENT&lt;br&gt;(Student_ID FK, Course_ID FK, Grade)" style="rounded=0;whiteSpace=wrap;html=1;" vertex="1" parent="1">
          <mxGeometry x="365" y="700" width="215" height="60" as="geometry" />
        </mxCell>
        <mxCell id="IvjxRuRWldD-dNK5fLIv-8" value="TEACHES&lt;br&gt;(Faculty_ID FK, Course_ID FK)" style="rounded=0;whiteSpace=wrap;html=1;" vertex="1" parent="1">
          <mxGeometry x="365" y="840" width="215" height="60" as="geometry" />
        </mxCell>
        <mxCell id="IvjxRuRWldD-dNK5fLIv-9" value="" style="endArrow=classic;html=1;rounded=0;exitX=0.999;exitY=0.647;exitDx=0;exitDy=0;exitPerimeter=0;entryX=-0.013;entryY=0.638;entryDx=0;entryDy=0;entryPerimeter=0;" edge="1" parent="1" source="IvjxRuRWldD-dNK5fLIv-6" target="IvjxRuRWldD-dNK5fLIv-1">
          <mxGeometry relative="1" as="geometry">
            <mxPoint x="710" y="760" as="sourcePoint" />
            <mxPoint x="810" y="760" as="targetPoint" />
            <Array as="points" />
          </mxGeometry>
        </mxCell>
        <mxCell id="IvjxRuRWldD-dNK5fLIv-10" value="Label" style="edgeLabel;resizable=0;html=1;;align=center;verticalAlign=middle;" connectable="0" vertex="1" parent="IvjxRuRWldD-dNK5fLIv-9">
          <mxGeometry relative="1" as="geometry">
            <mxPoint x="-170" y="200" as="offset" />
          </mxGeometry>
        </mxCell>
        <mxCell id="IvjxRuRWldD-dNK5fLIv-11" value="M" style="edgeLabel;html=1;align=center;verticalAlign=middle;resizable=0;points=[];" vertex="1" connectable="0" parent="IvjxRuRWldD-dNK5fLIv-9">
          <mxGeometry x="-0.6216" y="2" relative="1" as="geometry">
            <mxPoint as="offset" />
          </mxGeometry>
        </mxCell>
        <mxCell id="IvjxRuRWldD-dNK5fLIv-12" value="1" style="edgeLabel;html=1;align=center;verticalAlign=middle;resizable=0;points=[];" vertex="1" connectable="0" parent="IvjxRuRWldD-dNK5fLIv-9">
          <mxGeometry x="0.4622" relative="1" as="geometry">
            <mxPoint as="offset" />
          </mxGeometry>
        </mxCell>
        <mxCell id="IvjxRuRWldD-dNK5fLIv-13" value="" style="endArrow=classic;html=1;rounded=0;exitX=1;exitY=0.5;exitDx=0;exitDy=0;" edge="1" parent="1" source="IvjxRuRWldD-dNK5fLIv-8">
          <mxGeometry relative="1" as="geometry">
            <mxPoint x="710" y="760" as="sourcePoint" />
            <mxPoint x="720" y="800" as="targetPoint" />
          </mxGeometry>
        </mxCell>
        <mxCell id="IvjxRuRWldD-dNK5fLIv-14" value="M" style="edgeLabel;html=1;align=center;verticalAlign=middle;resizable=0;points=[];" vertex="1" connectable="0" parent="IvjxRuRWldD-dNK5fLIv-13">
          <mxGeometry x="-0.5987" y="-1" relative="1" as="geometry">
            <mxPoint as="offset" />
          </mxGeometry>
        </mxCell>
        <mxCell id="IvjxRuRWldD-dNK5fLIv-15" value="1" style="edgeLabel;html=1;align=center;verticalAlign=middle;resizable=0;points=[];" vertex="1" connectable="0" parent="IvjxRuRWldD-dNK5fLIv-13">
          <mxGeometry x="0.4132" y="-3" relative="1" as="geometry">
            <mxPoint as="offset" />
          </mxGeometry>
        </mxCell>
        <mxCell id="IvjxRuRWldD-dNK5fLIv-16" value="" style="endArrow=classic;html=1;rounded=0;exitX=1;exitY=0.5;exitDx=0;exitDy=0;entryX=-0.009;entryY=0.587;entryDx=0;entryDy=0;entryPerimeter=0;" edge="1" parent="1" source="IvjxRuRWldD-dNK5fLIv-7" target="IvjxRuRWldD-dNK5fLIv-1">
          <mxGeometry relative="1" as="geometry">
            <mxPoint x="710" y="760" as="sourcePoint" />
            <mxPoint x="810" y="760" as="targetPoint" />
          </mxGeometry>
        </mxCell>
        <mxCell id="IvjxRuRWldD-dNK5fLIv-17" value="M" style="edgeLabel;html=1;align=center;verticalAlign=middle;resizable=0;points=[];" vertex="1" connectable="0" parent="IvjxRuRWldD-dNK5fLIv-16">
          <mxGeometry x="-0.5963" y="-3" relative="1" as="geometry">
            <mxPoint as="offset" />
          </mxGeometry>
        </mxCell>
        <mxCell id="IvjxRuRWldD-dNK5fLIv-18" value="1" style="edgeLabel;html=1;align=center;verticalAlign=middle;resizable=0;points=[];" vertex="1" connectable="0" parent="IvjxRuRWldD-dNK5fLIv-16">
          <mxGeometry x="0.4372" y="-3" relative="1" as="geometry">
            <mxPoint as="offset" />
          </mxGeometry>
        </mxCell>
        <mxCell id="IvjxRuRWldD-dNK5fLIv-19" value="" style="endArrow=none;html=1;rounded=0;entryX=-0.006;entryY=0.585;entryDx=0;entryDy=0;entryPerimeter=0;" edge="1" parent="1" target="IvjxRuRWldD-dNK5fLIv-3">
          <mxGeometry width="50" height="50" relative="1" as="geometry">
            <mxPoint x="580" y="730" as="sourcePoint" />
            <mxPoint x="630" y="680" as="targetPoint" />
          </mxGeometry>
        </mxCell>
        <mxCell id="IvjxRuRWldD-dNK5fLIv-20" value="M" style="edgeLabel;html=1;align=center;verticalAlign=middle;resizable=0;points=[];" vertex="1" connectable="0" parent="IvjxRuRWldD-dNK5fLIv-19">
          <mxGeometry x="-0.5633" y="1" relative="1" as="geometry">
            <mxPoint as="offset" />
          </mxGeometry>
        </mxCell>
        <mxCell id="IvjxRuRWldD-dNK5fLIv-21" value="1" style="edgeLabel;html=1;align=center;verticalAlign=middle;resizable=0;points=[];" vertex="1" connectable="0" parent="IvjxRuRWldD-dNK5fLIv-19">
          <mxGeometry x="0.5671" y="-3" relative="1" as="geometry">
            <mxPoint as="offset" />
          </mxGeometry>
        </mxCell>
        <mxCell id="IvjxRuRWldD-dNK5fLIv-22" value="" style="endArrow=none;html=1;rounded=0;entryX=0;entryY=0.5;entryDx=0;entryDy=0;" edge="1" parent="1" target="IvjxRuRWldD-dNK5fLIv-4">
          <mxGeometry width="50" height="50" relative="1" as="geometry">
            <mxPoint x="580" y="870" as="sourcePoint" />
            <mxPoint x="630" y="820" as="targetPoint" />
          </mxGeometry>
        </mxCell>
        <mxCell id="IvjxRuRWldD-dNK5fLIv-23" value="M" style="edgeLabel;html=1;align=center;verticalAlign=middle;resizable=0;points=[];" vertex="1" connectable="0" parent="IvjxRuRWldD-dNK5fLIv-22">
          <mxGeometry x="-0.5626" y="-2" relative="1" as="geometry">
            <mxPoint as="offset" />
          </mxGeometry>
        </mxCell>
        <mxCell id="IvjxRuRWldD-dNK5fLIv-24" value="1" style="edgeLabel;html=1;align=center;verticalAlign=middle;resizable=0;points=[];" vertex="1" connectable="0" parent="IvjxRuRWldD-dNK5fLIv-22">
          <mxGeometry x="0.5389" y="3" relative="1" as="geometry">
            <mxPoint as="offset" />
          </mxGeometry>
        </mxCell>
        <mxCell id="IvjxRuRWldD-dNK5fLIv-25" value="" style="endArrow=none;html=1;rounded=0;entryX=0;entryY=0.5;entryDx=0;entryDy=0;" edge="1" parent="1" target="IvjxRuRWldD-dNK5fLIv-2">
          <mxGeometry width="50" height="50" relative="1" as="geometry">
            <mxPoint x="920" y="800" as="sourcePoint" />
            <mxPoint x="970" y="750" as="targetPoint" />
          </mxGeometry>
        </mxCell>
        <mxCell id="IvjxRuRWldD-dNK5fLIv-26" value="M" style="edgeLabel;html=1;align=center;verticalAlign=middle;resizable=0;points=[];" vertex="1" connectable="0" parent="IvjxRuRWldD-dNK5fLIv-25">
          <mxGeometry x="-0.7295" y="1" relative="1" as="geometry">
            <mxPoint as="offset" />
          </mxGeometry>
        </mxCell>
        <mxCell id="IvjxRuRWldD-dNK5fLIv-27" value="1" style="edgeLabel;html=1;align=center;verticalAlign=middle;resizable=0;points=[];" vertex="1" connectable="0" parent="IvjxRuRWldD-dNK5fLIv-25">
          <mxGeometry x="0.4322" y="-3" relative="1" as="geometry">
            <mxPoint as="offset" />
          </mxGeometry>
        </mxCell>
        <mxCell id="IvjxRuRWldD-dNK5fLIv-28" value="" style="endArrow=none;html=1;rounded=0;entryX=0;entryY=0.5;entryDx=0;entryDy=0;" edge="1" parent="1" target="IvjxRuRWldD-dNK5fLIv-2">
          <mxGeometry width="50" height="50" relative="1" as="geometry">
            <mxPoint x="920" y="670" as="sourcePoint" />
            <mxPoint x="970" y="620" as="targetPoint" />
          </mxGeometry>
        </mxCell>
        <mxCell id="IvjxRuRWldD-dNK5fLIv-29" value="M" style="edgeLabel;html=1;align=center;verticalAlign=middle;resizable=0;points=[];" vertex="1" connectable="0" parent="IvjxRuRWldD-dNK5fLIv-28">
          <mxGeometry x="-0.6972" y="-2" relative="1" as="geometry">
            <mxPoint as="offset" />
          </mxGeometry>
        </mxCell>
        <mxCell id="IvjxRuRWldD-dNK5fLIv-30" value="1" style="edgeLabel;html=1;align=center;verticalAlign=middle;resizable=0;points=[];" vertex="1" connectable="0" parent="IvjxRuRWldD-dNK5fLIv-28">
          <mxGeometry x="0.5009" y="1" relative="1" as="geometry">
            <mxPoint as="offset" />
          </mxGeometry>
        </mxCell>
        <mxCell id="IvjxRuRWldD-dNK5fLIv-31" value="" style="endArrow=none;html=1;rounded=0;entryX=0;entryY=0.5;entryDx=0;entryDy=0;" edge="1" parent="1" target="IvjxRuRWldD-dNK5fLIv-2">
          <mxGeometry width="50" height="50" relative="1" as="geometry">
            <mxPoint x="920" y="940" as="sourcePoint" />
            <mxPoint x="1000" y="740" as="targetPoint" />
          </mxGeometry>
        </mxCell>
        <mxCell id="IvjxRuRWldD-dNK5fLIv-32" value="M" style="edgeLabel;html=1;align=center;verticalAlign=middle;resizable=0;points=[];" vertex="1" connectable="0" parent="IvjxRuRWldD-dNK5fLIv-31">
          <mxGeometry x="-0.6587" y="-2" relative="1" as="geometry">
            <mxPoint as="offset" />
          </mxGeometry>
        </mxCell>
        <mxCell id="IvjxRuRWldD-dNK5fLIv-33" value="1" style="edgeLabel;html=1;align=center;verticalAlign=middle;resizable=0;points=[];" vertex="1" connectable="0" parent="IvjxRuRWldD-dNK5fLIv-31">
          <mxGeometry x="0.4223" y="-4" relative="1" as="geometry">
            <mxPoint as="offset" />
          </mxGeometry>
        </mxCell>
        <mxCell id="IvjxRuRWldD-dNK5fLIv-34" value="" style="rhombus;whiteSpace=wrap;html=1;" vertex="1" parent="1">
          <mxGeometry x="650" y="480" width="80" height="80" as="geometry" />
        </mxCell>
      </root>
    </mxGraphModel>
  </diagram>
</mxfile>
